<mxfile host="app.diagrams.net" modified="2023-06-19T13:50:03.708Z" agent="Mozilla/5.0 (X11; Linux x86_64) AppleWebKit/537.36 (KHTML, like Gecko) Chrome/114.0.0.0 Safari/537.36" etag="CHjcezSJpp6XtwjiZHk1" version="21.5.0" type="device">
  <diagram name="Page-1" id="2p9Ft9SRFH3OUOYsTDej">
    <mxGraphModel dx="2234" dy="1357" grid="0" gridSize="10" guides="1" tooltips="1" connect="1" arrows="1" fold="1" page="0" pageScale="1" pageWidth="850" pageHeight="1100" math="0" shadow="0">
      <root>
        <mxCell id="0" />
        <mxCell id="1" parent="0" />
        <mxCell id="4kEjzqhDH_S5JSZRYNqj-3" value="github:tiiuae/ghaf" style="swimlane;fontSize=16;fontStyle=0" vertex="1" parent="1">
          <mxGeometry x="-187" y="-71" width="170" height="369" as="geometry" />
        </mxCell>
        <mxCell id="4kEjzqhDH_S5JSZRYNqj-36" value="&lt;font style=&quot;font-size: 16px;&quot;&gt;Secure,&lt;br&gt;Declarative&lt;br&gt;Edge &lt;br&gt;Virtualization&lt;/font&gt;&lt;br&gt;Platform" style="text;html=1;align=center;verticalAlign=middle;resizable=0;points=[];autosize=1;strokeColor=none;fillColor=none;fontSize=16;" vertex="1" parent="4kEjzqhDH_S5JSZRYNqj-3">
          <mxGeometry x="30.5" y="85.5" width="109" height="108" as="geometry" />
        </mxCell>
        <mxCell id="4kEjzqhDH_S5JSZRYNqj-4" value="github:astro/microvm.nix" style="swimlane;fontSize=13;startSize=23;fontStyle=0" vertex="1" parent="1">
          <mxGeometry x="166" y="3" width="194" height="110" as="geometry" />
        </mxCell>
        <mxCell id="4kEjzqhDH_S5JSZRYNqj-12" value="&lt;font style=&quot;font-size: 14px;&quot;&gt;Virtual machine, VMM and &lt;br&gt;systemd services&lt;br&gt;declarations&lt;/font&gt;" style="text;html=1;align=center;verticalAlign=middle;resizable=0;points=[];autosize=1;strokeColor=none;fillColor=none;fontSize=16;" vertex="1" parent="4kEjzqhDH_S5JSZRYNqj-4">
          <mxGeometry x="6" y="30" width="182" height="70" as="geometry" />
        </mxCell>
        <mxCell id="4kEjzqhDH_S5JSZRYNqj-6" value="github:nixos/nixos-hardware" style="swimlane;fontSize=13;startSize=23;fontStyle=0" vertex="1" parent="1">
          <mxGeometry x="166" y="143" width="193" height="82" as="geometry" />
        </mxCell>
        <mxCell id="4kEjzqhDH_S5JSZRYNqj-13" value="&lt;font style=&quot;font-size: 14px;&quot;&gt;Collection of &lt;br&gt;HW-specific modules&lt;/font&gt;" style="text;html=1;align=center;verticalAlign=middle;resizable=0;points=[];autosize=1;strokeColor=none;fillColor=none;fontSize=16;" vertex="1" parent="4kEjzqhDH_S5JSZRYNqj-6">
          <mxGeometry x="22" y="24" width="149" height="50" as="geometry" />
        </mxCell>
        <mxCell id="4kEjzqhDH_S5JSZRYNqj-8" value="input" style="endArrow=block;endSize=16;endFill=0;html=1;rounded=0;fontSize=12;curved=1;exitX=0;exitY=0.5;exitDx=0;exitDy=0;" edge="1" parent="1" source="4kEjzqhDH_S5JSZRYNqj-6">
          <mxGeometry width="160" relative="1" as="geometry">
            <mxPoint x="-8" y="378" as="sourcePoint" />
            <mxPoint x="-17" y="184" as="targetPoint" />
          </mxGeometry>
        </mxCell>
        <mxCell id="4kEjzqhDH_S5JSZRYNqj-9" value="input" style="endArrow=block;endSize=16;endFill=0;html=1;rounded=0;fontSize=12;curved=1;exitX=0;exitY=0.5;exitDx=0;exitDy=0;" edge="1" parent="1" source="4kEjzqhDH_S5JSZRYNqj-4">
          <mxGeometry width="160" relative="1" as="geometry">
            <mxPoint x="176" y="194" as="sourcePoint" />
            <mxPoint x="-18" y="58" as="targetPoint" />
          </mxGeometry>
        </mxCell>
        <mxCell id="4kEjzqhDH_S5JSZRYNqj-10" value="github:nixos-communuity/nixos-generators" style="swimlane;fontSize=10;startSize=23;fontStyle=0" vertex="1" parent="1">
          <mxGeometry x="398" y="84" width="218" height="82" as="geometry" />
        </mxCell>
        <mxCell id="4kEjzqhDH_S5JSZRYNqj-14" value="&lt;font style=&quot;font-size: 14px;&quot;&gt;Collection of &lt;br&gt;image builders&lt;/font&gt;" style="text;html=1;align=center;verticalAlign=middle;resizable=0;points=[];autosize=1;strokeColor=none;fillColor=none;fontSize=16;" vertex="1" parent="4kEjzqhDH_S5JSZRYNqj-10">
          <mxGeometry x="54.5" y="23" width="109" height="50" as="geometry" />
        </mxCell>
        <mxCell id="4kEjzqhDH_S5JSZRYNqj-11" value="input" style="endArrow=block;endSize=16;endFill=0;html=1;rounded=0;fontSize=12;curved=1;exitX=0;exitY=0.5;exitDx=0;exitDy=0;" edge="1" parent="1" source="4kEjzqhDH_S5JSZRYNqj-10">
          <mxGeometry x="0.5663" y="-1" width="160" relative="1" as="geometry">
            <mxPoint x="166" y="124.5" as="sourcePoint" />
            <mxPoint x="-17" y="122" as="targetPoint" />
            <mxPoint as="offset" />
          </mxGeometry>
        </mxCell>
        <mxCell id="4kEjzqhDH_S5JSZRYNqj-16" value="github:anduril/jetpack" style="swimlane;fontSize=10;startSize=23;fontStyle=0" vertex="1" parent="1">
          <mxGeometry x="398" y="197" width="218" height="82" as="geometry" />
        </mxCell>
        <mxCell id="4kEjzqhDH_S5JSZRYNqj-17" value="&lt;span style=&quot;font-size: 14px;&quot;&gt;&quot;NixOS module for NVIDIA &lt;br&gt;Jetson devices&quot;&amp;nbsp;&lt;/span&gt;" style="text;html=1;align=center;verticalAlign=middle;resizable=0;points=[];autosize=1;strokeColor=none;fillColor=none;fontSize=16;" vertex="1" parent="4kEjzqhDH_S5JSZRYNqj-16">
          <mxGeometry x="17.5" y="24" width="184" height="50" as="geometry" />
        </mxCell>
        <mxCell id="4kEjzqhDH_S5JSZRYNqj-18" value="input" style="endArrow=block;endSize=16;endFill=0;html=1;rounded=0;fontSize=12;curved=1;exitX=0;exitY=0.5;exitDx=0;exitDy=0;" edge="1" parent="1">
          <mxGeometry x="0.5663" y="-1" width="160" relative="1" as="geometry">
            <mxPoint x="398" y="239.5" as="sourcePoint" />
            <mxPoint x="-17" y="236.5" as="targetPoint" />
            <mxPoint as="offset" />
          </mxGeometry>
        </mxCell>
        <mxCell id="4kEjzqhDH_S5JSZRYNqj-20" value="github:numtide/flake-utils" style="swimlane;fontSize=10;startSize=23;fontStyle=0" vertex="1" parent="1">
          <mxGeometry x="398" y="-51" width="218" height="82" as="geometry" />
        </mxCell>
        <mxCell id="4kEjzqhDH_S5JSZRYNqj-21" value="&lt;span style=&quot;font-size: 14px;&quot;&gt;Nix flake utility functions&lt;/span&gt;" style="text;html=1;align=center;verticalAlign=middle;resizable=0;points=[];autosize=1;strokeColor=none;fillColor=none;fontSize=16;" vertex="1" parent="4kEjzqhDH_S5JSZRYNqj-20">
          <mxGeometry x="25.5" y="33" width="167" height="31" as="geometry" />
        </mxCell>
        <mxCell id="4kEjzqhDH_S5JSZRYNqj-22" value="input" style="endArrow=block;endSize=16;endFill=0;html=1;rounded=0;fontSize=12;curved=1;exitX=0;exitY=0.5;exitDx=0;exitDy=0;" edge="1" parent="1">
          <mxGeometry x="0.5663" y="-1" width="160" relative="1" as="geometry">
            <mxPoint x="398" y="-8.5" as="sourcePoint" />
            <mxPoint x="-17" y="-11.5" as="targetPoint" />
            <mxPoint as="offset" />
          </mxGeometry>
        </mxCell>
        <mxCell id="4kEjzqhDH_S5JSZRYNqj-23" value="git:&lt;your_account&gt;/&lt;repo&gt;" style="swimlane;fontSize=16;fontStyle=1" vertex="1" parent="1">
          <mxGeometry x="-565" y="31" width="243" height="164" as="geometry" />
        </mxCell>
        <mxCell id="4kEjzqhDH_S5JSZRYNqj-37" value="Your system&lt;br&gt;with imported&lt;br&gt;and declared&lt;br&gt;ghaf and nixos&lt;br&gt;module options" style="text;html=1;align=center;verticalAlign=middle;resizable=0;points=[];autosize=1;strokeColor=none;fillColor=none;fontSize=20;fontStyle=1" vertex="1" parent="4kEjzqhDH_S5JSZRYNqj-23">
          <mxGeometry x="41" y="24" width="167" height="132" as="geometry" />
        </mxCell>
        <mxCell id="4kEjzqhDH_S5JSZRYNqj-24" value="input" style="endArrow=block;endSize=16;endFill=0;html=1;rounded=0;fontSize=12;curved=1;exitX=0;exitY=0.5;exitDx=0;exitDy=0;entryX=1;entryY=0.5;entryDx=0;entryDy=0;" edge="1" parent="1" source="4kEjzqhDH_S5JSZRYNqj-3" target="4kEjzqhDH_S5JSZRYNqj-23">
          <mxGeometry width="160" relative="1" as="geometry">
            <mxPoint x="-139" y="124.5" as="sourcePoint" />
            <mxPoint x="-322" y="124.5" as="targetPoint" />
          </mxGeometry>
        </mxCell>
        <mxCell id="4kEjzqhDH_S5JSZRYNqj-25" value="*" style="endArrow=open;html=1;endSize=12;startArrow=diamondThin;startSize=14;startFill=1;edgeStyle=orthogonalEdgeStyle;align=left;verticalAlign=bottom;rounded=0;fontSize=12;curved=1;exitX=0.75;exitY=1;exitDx=0;exitDy=0;entryX=0.438;entryY=0.002;entryDx=0;entryDy=0;entryPerimeter=0;" edge="1" parent="1" source="4kEjzqhDH_S5JSZRYNqj-3" target="4kEjzqhDH_S5JSZRYNqj-26">
          <mxGeometry x="-1" y="3" relative="1" as="geometry">
            <mxPoint x="-72" y="477" as="sourcePoint" />
            <mxPoint x="-60" y="459" as="targetPoint" />
          </mxGeometry>
        </mxCell>
        <mxCell id="4kEjzqhDH_S5JSZRYNqj-26" value="github:tiiuae/ghaf/modules" style="swimlane;fontSize=13;startSize=23;fontStyle=0;fillStyle=solid;fillColor=#FFFFFF;" vertex="1" parent="1">
          <mxGeometry x="-148" y="401" width="202" height="277" as="geometry" />
        </mxCell>
        <mxCell id="4kEjzqhDH_S5JSZRYNqj-38" value="boot/&lt;br&gt;development/&lt;br&gt;graphics/&lt;br&gt;hardware/&lt;br&gt;host/&lt;br&gt;users/&lt;br&gt;version/&lt;br&gt;virtualization/&lt;br&gt;windows-launcher/&lt;br&gt;..." style="text;html=1;align=left;verticalAlign=middle;resizable=0;points=[];autosize=1;strokeColor=none;fillColor=none;fontSize=16;fontFamily=Courier New;" vertex="1" parent="4kEjzqhDH_S5JSZRYNqj-26">
          <mxGeometry x="18" y="46" width="181" height="204" as="geometry" />
        </mxCell>
        <mxCell id="4kEjzqhDH_S5JSZRYNqj-33" value="github:tpwrules/nixos-apple-silicon" style="swimlane;fontSize=10;startSize=23;fontStyle=0" vertex="1" parent="1">
          <mxGeometry x="-431" y="-270" width="193" height="100" as="geometry" />
        </mxCell>
        <mxCell id="4kEjzqhDH_S5JSZRYNqj-34" value="&lt;font style=&quot;font-size: 14px;&quot;&gt;&quot;Resources to install&lt;br&gt;NixOS bare metal on&lt;br&gt;Apple Silicon Macs&quot;&lt;/font&gt;" style="text;html=1;align=center;verticalAlign=middle;resizable=0;points=[];autosize=1;strokeColor=none;fillColor=none;fontSize=16;" vertex="1" parent="4kEjzqhDH_S5JSZRYNqj-33">
          <mxGeometry x="25" y="23.5" width="148" height="70" as="geometry" />
        </mxCell>
        <mxCell id="4kEjzqhDH_S5JSZRYNqj-35" value="example&lt;br&gt;input" style="endArrow=block;endSize=16;endFill=0;html=1;rounded=0;fontSize=12;curved=1;exitX=0.25;exitY=1;exitDx=0;exitDy=0;entryX=0.75;entryY=0;entryDx=0;entryDy=0;dashed=1;" edge="1" parent="1" source="4kEjzqhDH_S5JSZRYNqj-33" target="4kEjzqhDH_S5JSZRYNqj-23">
          <mxGeometry width="160" relative="1" as="geometry">
            <mxPoint x="-177" y="124" as="sourcePoint" />
            <mxPoint x="-312" y="123" as="targetPoint" />
          </mxGeometry>
        </mxCell>
        <mxCell id="4kEjzqhDH_S5JSZRYNqj-44" value="git:your_hw_vendor_bsp" style="swimlane;fontSize=13;startSize=23;fontStyle=0" vertex="1" parent="1">
          <mxGeometry x="-640.5" y="-270" width="198.5" height="117" as="geometry" />
        </mxCell>
        <mxCell id="4kEjzqhDH_S5JSZRYNqj-45" value="&lt;font style=&quot;font-size: 14px;&quot;&gt;&amp;lt;your HW vendor&lt;br&gt;board-support package (BSP)&lt;br&gt;as nix&amp;nbsp;module&amp;gt;&lt;/font&gt;" style="text;html=1;align=center;verticalAlign=middle;resizable=0;points=[];autosize=1;strokeColor=none;fillColor=none;fontSize=16;" vertex="1" parent="4kEjzqhDH_S5JSZRYNqj-44">
          <mxGeometry y="30" width="203" height="70" as="geometry" />
        </mxCell>
        <mxCell id="4kEjzqhDH_S5JSZRYNqj-46" value="example&lt;br&gt;input" style="endArrow=block;endSize=16;endFill=0;html=1;rounded=0;fontSize=12;curved=1;exitX=0.5;exitY=1;exitDx=0;exitDy=0;entryX=0.218;entryY=-0.027;entryDx=0;entryDy=0;dashed=1;entryPerimeter=0;" edge="1" parent="1" source="4kEjzqhDH_S5JSZRYNqj-44" target="4kEjzqhDH_S5JSZRYNqj-23">
          <mxGeometry width="160" relative="1" as="geometry">
            <mxPoint x="-373" y="-160" as="sourcePoint" />
            <mxPoint x="-373" y="41" as="targetPoint" />
          </mxGeometry>
        </mxCell>
      </root>
    </mxGraphModel>
  </diagram>
</mxfile>
